# xmcd CD database file
#
# Track frame offsets:
#	150
#	15300
#	30900
#	42525
#	57600
#	75525
#	89775
#	102675
#	116475
#	136725
#	158550
#	175750
#	194025
#	207325
#
# Disc length: 2978 seconds
#
# Revision: 0
# Processed by: cddbd v1.4PL0 Copyright (c) Steve Scherf et al.
# Submitted via: CDex 1.51
#
DISCID=bc0ba00e
DTITLE=Phantom Flyers - Swamp Fever
DYEAR=1991
DGENRE=Blues
TTITLE0=Fed Up
TTITLE1=Blue Light Shuffle
TTITLE2=GoingTo Louisiana (Allons A Louisiane)
TTITLE3=Charlene
TTITLE4=I'm Gonna Miss You (Like The Devil)
TTITLE5=Walkin' On The Bayou
TTITLE6=Somebody New
TTITLE7=Promised Land
TTITLE8=What Kinda Life
TTITLE9=Love Me Now
TTITLE10=Pilot Town Louisiana
TTITLE11=Ice Cream Man
TTITLE12=Roots Of Rock
TTITLE13=Voodoo Beat
EXTD=YEAR: 1991
EXTT0=
EXTT1=
EXTT2=
EXTT3=
EXTT4=
EXTT5=
EXTT6=
EXTT7=
EXTT8=
EXTT9=
EXTT10=
EXTT11=
EXTT12=
EXTT13=
PLAYORDER=
